<mxfile host="app.diagrams.net" modified="2024-06-25T15:43:52.312Z" agent="Mozilla/5.0 (Windows NT 10.0; Win64; x64) AppleWebKit/537.36 (KHTML, like Gecko) Chrome/126.0.0.0 Safari/537.36" etag="nL87Lh12l1gTp8Y4N4m1" version="24.5.5" type="device">
  <diagram name="หน้า-1" id="wuNBMDShvq_Hzyxi6Yez">
    <mxGraphModel dx="1434" dy="738" grid="1" gridSize="10" guides="1" tooltips="1" connect="1" arrows="1" fold="1" page="1" pageScale="1" pageWidth="827" pageHeight="1169" math="0" shadow="0">
      <root>
        <mxCell id="0" />
        <mxCell id="1" parent="0" />
        <mxCell id="9LnWUTu83G5unpn9Aq02-15" style="edgeStyle=orthogonalEdgeStyle;rounded=0;orthogonalLoop=1;jettySize=auto;html=1;entryX=0;entryY=0.5;entryDx=0;entryDy=0;" parent="1" source="9LnWUTu83G5unpn9Aq02-1" target="9LnWUTu83G5unpn9Aq02-4" edge="1">
          <mxGeometry relative="1" as="geometry" />
        </mxCell>
        <mxCell id="9LnWUTu83G5unpn9Aq02-1" value="Applicant" style="shape=umlActor;verticalLabelPosition=bottom;verticalAlign=top;html=1;outlineConnect=0;" parent="1" vertex="1">
          <mxGeometry x="250" y="260" width="30" height="60" as="geometry" />
        </mxCell>
        <mxCell id="9LnWUTu83G5unpn9Aq02-16" style="edgeStyle=orthogonalEdgeStyle;rounded=0;orthogonalLoop=1;jettySize=auto;html=1;" parent="1" source="9LnWUTu83G5unpn9Aq02-2" target="9LnWUTu83G5unpn9Aq02-3" edge="1">
          <mxGeometry relative="1" as="geometry" />
        </mxCell>
        <mxCell id="9LnWUTu83G5unpn9Aq02-2" value="HR" style="shape=umlActor;verticalLabelPosition=bottom;verticalAlign=top;html=1;outlineConnect=0;" parent="1" vertex="1">
          <mxGeometry x="250" y="400" width="30" height="60" as="geometry" />
        </mxCell>
        <mxCell id="5kF4lQvQM7i0wxMjR984-5" style="edgeStyle=orthogonalEdgeStyle;rounded=0;orthogonalLoop=1;jettySize=auto;html=1;entryX=0;entryY=0.5;entryDx=0;entryDy=0;" edge="1" parent="1" source="9LnWUTu83G5unpn9Aq02-3" target="5kF4lQvQM7i0wxMjR984-3">
          <mxGeometry relative="1" as="geometry" />
        </mxCell>
        <mxCell id="9LnWUTu83G5unpn9Aq02-3" value="Dashboard&lt;br&gt;(Web Interface)" style="rounded=0;whiteSpace=wrap;html=1;fillColor=#dae8fc;strokeColor=#6c8ebf;" parent="1" vertex="1">
          <mxGeometry x="360" y="400" width="120" height="60" as="geometry" />
        </mxCell>
        <mxCell id="5kF4lQvQM7i0wxMjR984-4" style="edgeStyle=orthogonalEdgeStyle;rounded=0;orthogonalLoop=1;jettySize=auto;html=1;entryX=0;entryY=0.5;entryDx=0;entryDy=0;" edge="1" parent="1" source="9LnWUTu83G5unpn9Aq02-4" target="5kF4lQvQM7i0wxMjR984-3">
          <mxGeometry relative="1" as="geometry" />
        </mxCell>
        <mxCell id="9LnWUTu83G5unpn9Aq02-4" value="Application form&lt;br&gt;(Web interface)" style="rounded=0;whiteSpace=wrap;html=1;fillColor=#dae8fc;strokeColor=#6c8ebf;" parent="1" vertex="1">
          <mxGeometry x="360" y="260" width="120" height="60" as="geometry" />
        </mxCell>
        <mxCell id="9LnWUTu83G5unpn9Aq02-5" value="&lt;br&gt;Database&lt;br&gt;(NoSql)" style="strokeWidth=2;html=1;shape=mxgraph.flowchart.database;whiteSpace=wrap;fillColor=#fff2cc;strokeColor=#d6b656;" parent="1" vertex="1">
          <mxGeometry x="910" y="220" width="60" height="100" as="geometry" />
        </mxCell>
        <mxCell id="9LnWUTu83G5unpn9Aq02-6" value="&lt;br&gt;Files Storage" style="strokeWidth=2;html=1;shape=mxgraph.flowchart.database;whiteSpace=wrap;fillColor=#fff2cc;strokeColor=#d6b656;" parent="1" vertex="1">
          <mxGeometry x="910" y="400" width="60" height="100" as="geometry" />
        </mxCell>
        <mxCell id="9LnWUTu83G5unpn9Aq02-9" style="edgeStyle=orthogonalEdgeStyle;rounded=0;orthogonalLoop=1;jettySize=auto;html=1;entryX=0;entryY=0.5;entryDx=0;entryDy=0;entryPerimeter=0;" parent="1" source="9LnWUTu83G5unpn9Aq02-7" target="9LnWUTu83G5unpn9Aq02-6" edge="1">
          <mxGeometry relative="1" as="geometry">
            <Array as="points">
              <mxPoint x="760" y="450" />
            </Array>
          </mxGeometry>
        </mxCell>
        <mxCell id="9LnWUTu83G5unpn9Aq02-11" style="edgeStyle=orthogonalEdgeStyle;rounded=0;orthogonalLoop=1;jettySize=auto;html=1;" parent="1" source="9LnWUTu83G5unpn9Aq02-7" target="9LnWUTu83G5unpn9Aq02-5" edge="1">
          <mxGeometry relative="1" as="geometry">
            <Array as="points">
              <mxPoint x="760" y="270" />
            </Array>
          </mxGeometry>
        </mxCell>
        <mxCell id="5kF4lQvQM7i0wxMjR984-7" style="edgeStyle=orthogonalEdgeStyle;rounded=0;orthogonalLoop=1;jettySize=auto;html=1;entryX=0;entryY=0.5;entryDx=0;entryDy=0;" edge="1" parent="1" source="9LnWUTu83G5unpn9Aq02-7" target="5kF4lQvQM7i0wxMjR984-1">
          <mxGeometry relative="1" as="geometry" />
        </mxCell>
        <mxCell id="9LnWUTu83G5unpn9Aq02-7" value="Server&lt;br&gt;(Python API)" style="rounded=0;whiteSpace=wrap;html=1;fillColor=#ffe6cc;strokeColor=#d79b00;" parent="1" vertex="1">
          <mxGeometry x="700" y="330" width="120" height="60" as="geometry" />
        </mxCell>
        <mxCell id="5kF4lQvQM7i0wxMjR984-8" style="edgeStyle=orthogonalEdgeStyle;rounded=0;orthogonalLoop=1;jettySize=auto;html=1;entryX=0;entryY=0.5;entryDx=0;entryDy=0;" edge="1" parent="1" source="5kF4lQvQM7i0wxMjR984-1" target="5kF4lQvQM7i0wxMjR984-2">
          <mxGeometry relative="1" as="geometry" />
        </mxCell>
        <mxCell id="5kF4lQvQM7i0wxMjR984-1" value="Resume Parsing&lt;div&gt;(Pyreparser)&lt;/div&gt;" style="rounded=0;whiteSpace=wrap;html=1;fillColor=#dae8fc;strokeColor=#6c8ebf;" vertex="1" parent="1">
          <mxGeometry x="1010" y="330" width="120" height="60" as="geometry" />
        </mxCell>
        <mxCell id="5kF4lQvQM7i0wxMjR984-2" value="&lt;div&gt;Validation&amp;amp; Data Extraction&lt;/div&gt;" style="rounded=0;whiteSpace=wrap;html=1;fillColor=#dae8fc;strokeColor=#6c8ebf;" vertex="1" parent="1">
          <mxGeometry x="1220" y="330" width="120" height="60" as="geometry" />
        </mxCell>
        <mxCell id="5kF4lQvQM7i0wxMjR984-6" style="edgeStyle=orthogonalEdgeStyle;rounded=0;orthogonalLoop=1;jettySize=auto;html=1;entryX=0;entryY=0.5;entryDx=0;entryDy=0;" edge="1" parent="1" source="5kF4lQvQM7i0wxMjR984-3" target="9LnWUTu83G5unpn9Aq02-7">
          <mxGeometry relative="1" as="geometry" />
        </mxCell>
        <mxCell id="5kF4lQvQM7i0wxMjR984-3" value="&lt;div&gt;Authorization&lt;/div&gt;" style="rounded=0;whiteSpace=wrap;html=1;fillColor=#dae8fc;strokeColor=#6c8ebf;" vertex="1" parent="1">
          <mxGeometry x="520" y="330" width="120" height="60" as="geometry" />
        </mxCell>
      </root>
    </mxGraphModel>
  </diagram>
</mxfile>
